<svg width="200" height="300" xmlns="http://www.w3.org/2000/svg">
  <!-- Clipboard base with brown background -->
  <rect x="10" y="10" width="180" height="280" rx="15" ry="15" style="fill:#d2b48c;stroke:black;stroke-width:2"/>
  <!-- Paper -->
  <rect x="25" y="40" width="150" height="210" rx="5" ry="5" style="fill:white;stroke:black;stroke-width:2"/>
  <!-- Adjusted top lines with more space to the right of the square -->
  <line x1="80" y1="60" x2="165" y2="60" style="stroke:black;stroke-width:1"/>
  <line x1="80" y1="80" x2="165" y2="80" style="stroke:black;stroke-width:1"/>
  <!-- Extended uniform lines down the paper -->
  <line x1="35" y1="100" x2="165" y2="100" style="stroke:black;stroke-width:1"/>
  <line x1="35" y1="120" x2="165" y2="120" style="stroke:black;stroke-width:1"/>
  <line x1="35" y1="140" x2="165" y2="140" style="stroke:black;stroke-width:1"/>
  <line x1="35" y1="160" x2="165" y2="160" style="stroke:black;stroke-width:1"/>
  <line x1="35" y1="180" x2="165" y2="180" style="stroke:black;stroke-width:1"/>
  <line x1="35" y1="200" x2="165" y2="200" style="stroke:black;stroke-width:1"/>
  <line x1="35" y1="220" x2="165" y2="220" style="stroke:black;stroke-width:1"/>
  <line x1="35" y1="240" x2="165" y2="240" style="stroke:black;stroke-width:1"/>
  <!-- Empty square for photograph -->
  <rect x="35" y="50" width="40" height="40" style="fill:none;stroke:black;stroke-width:2"/>
  <!-- Clip -->
  <rect x="70" y="15" width="60" height="20" style="fill:grey;stroke:black;stroke-width:2"/>
  <circle cx="100" cy="10" r="8" style="fill:silver;stroke:black;stroke-width:2"/>
</svg>